<mxfile host="app.diagrams.net" agent="Mozilla/5.0 (X11; Linux x86_64) AppleWebKit/537.36 (KHTML, like Gecko) Chrome/127.0.0.0 Safari/537.36" version="24.7.7">
  <diagram name="Page-1" id="sD9TsTRUCHRuzmudhdG3">
    <mxGraphModel dx="1434" dy="792" grid="1" gridSize="10" guides="1" tooltips="1" connect="1" arrows="1" fold="1" page="1" pageScale="1" pageWidth="1169" pageHeight="827" math="0" shadow="0">
      <root>
        <mxCell id="0" />
        <mxCell id="1" parent="0" />
        <mxCell id="gQGMB7D8yOKAmYJ-TftS-11" style="edgeStyle=orthogonalEdgeStyle;rounded=0;orthogonalLoop=1;jettySize=auto;html=1;exitX=0.5;exitY=1;exitDx=0;exitDy=0;" edge="1" parent="1" source="gQGMB7D8yOKAmYJ-TftS-1" target="gQGMB7D8yOKAmYJ-TftS-2">
          <mxGeometry relative="1" as="geometry" />
        </mxCell>
        <mxCell id="gQGMB7D8yOKAmYJ-TftS-12" style="edgeStyle=orthogonalEdgeStyle;rounded=0;orthogonalLoop=1;jettySize=auto;html=1;exitX=0.5;exitY=1;exitDx=0;exitDy=0;entryX=0.5;entryY=0;entryDx=0;entryDy=0;" edge="1" parent="1" source="gQGMB7D8yOKAmYJ-TftS-1" target="gQGMB7D8yOKAmYJ-TftS-3">
          <mxGeometry relative="1" as="geometry" />
        </mxCell>
        <mxCell id="gQGMB7D8yOKAmYJ-TftS-14" style="edgeStyle=orthogonalEdgeStyle;rounded=0;orthogonalLoop=1;jettySize=auto;html=1;exitX=0.5;exitY=1;exitDx=0;exitDy=0;" edge="1" parent="1" source="gQGMB7D8yOKAmYJ-TftS-1" target="gQGMB7D8yOKAmYJ-TftS-4">
          <mxGeometry relative="1" as="geometry" />
        </mxCell>
        <mxCell id="gQGMB7D8yOKAmYJ-TftS-1" value="&lt;font style=&quot;font-size: 20px;&quot;&gt;tasker&lt;/font&gt;&lt;div style=&quot;font-size: 20px;&quot;&gt;&lt;font style=&quot;font-size: 20px;&quot;&gt;app&lt;/font&gt;&lt;/div&gt;" style="ellipse;whiteSpace=wrap;html=1;aspect=fixed;align=center;" vertex="1" parent="1">
          <mxGeometry x="534" y="30" width="130" height="130" as="geometry" />
        </mxCell>
        <mxCell id="gQGMB7D8yOKAmYJ-TftS-2" value="&lt;span style=&quot;font-size: 20px;&quot;&gt;Header&lt;/span&gt;" style="ellipse;whiteSpace=wrap;html=1;aspect=fixed;align=center;" vertex="1" parent="1">
          <mxGeometry x="274" y="200" width="130" height="130" as="geometry" />
        </mxCell>
        <mxCell id="gQGMB7D8yOKAmYJ-TftS-3" value="&lt;span style=&quot;font-size: 20px;&quot;&gt;Hero&lt;/span&gt;" style="ellipse;whiteSpace=wrap;html=1;aspect=fixed;align=center;" vertex="1" parent="1">
          <mxGeometry x="434" y="200" width="130" height="130" as="geometry" />
        </mxCell>
        <mxCell id="gQGMB7D8yOKAmYJ-TftS-18" style="edgeStyle=orthogonalEdgeStyle;rounded=0;orthogonalLoop=1;jettySize=auto;html=1;exitX=0.5;exitY=1;exitDx=0;exitDy=0;" edge="1" parent="1" source="gQGMB7D8yOKAmYJ-TftS-4" target="gQGMB7D8yOKAmYJ-TftS-7">
          <mxGeometry relative="1" as="geometry" />
        </mxCell>
        <mxCell id="gQGMB7D8yOKAmYJ-TftS-19" style="edgeStyle=orthogonalEdgeStyle;rounded=0;orthogonalLoop=1;jettySize=auto;html=1;exitX=0.5;exitY=1;exitDx=0;exitDy=0;" edge="1" parent="1" source="gQGMB7D8yOKAmYJ-TftS-4" target="gQGMB7D8yOKAmYJ-TftS-17">
          <mxGeometry relative="1" as="geometry" />
        </mxCell>
        <mxCell id="gQGMB7D8yOKAmYJ-TftS-20" style="edgeStyle=orthogonalEdgeStyle;rounded=0;orthogonalLoop=1;jettySize=auto;html=1;exitX=0.5;exitY=1;exitDx=0;exitDy=0;" edge="1" parent="1" source="gQGMB7D8yOKAmYJ-TftS-4" target="gQGMB7D8yOKAmYJ-TftS-8">
          <mxGeometry relative="1" as="geometry" />
        </mxCell>
        <mxCell id="gQGMB7D8yOKAmYJ-TftS-21" style="edgeStyle=orthogonalEdgeStyle;rounded=0;orthogonalLoop=1;jettySize=auto;html=1;exitX=0.5;exitY=1;exitDx=0;exitDy=0;" edge="1" parent="1" source="gQGMB7D8yOKAmYJ-TftS-4" target="gQGMB7D8yOKAmYJ-TftS-10">
          <mxGeometry relative="1" as="geometry" />
        </mxCell>
        <mxCell id="gQGMB7D8yOKAmYJ-TftS-4" value="&lt;span style=&quot;font-size: 20px;&quot;&gt;Task Board&lt;/span&gt;" style="ellipse;whiteSpace=wrap;html=1;aspect=fixed;align=center;" vertex="1" parent="1">
          <mxGeometry x="594" y="200" width="130" height="130" as="geometry" />
        </mxCell>
        <mxCell id="gQGMB7D8yOKAmYJ-TftS-5" value="&lt;span style=&quot;font-size: 20px;&quot;&gt;Footer&lt;/span&gt;" style="ellipse;whiteSpace=wrap;html=1;aspect=fixed;align=center;" vertex="1" parent="1">
          <mxGeometry x="764" y="200" width="130" height="130" as="geometry" />
        </mxCell>
        <mxCell id="gQGMB7D8yOKAmYJ-TftS-7" value="&lt;div&gt;&lt;span style=&quot;font-size: 20px;&quot;&gt;Task&lt;/span&gt;&lt;/div&gt;&lt;div&gt;&lt;span style=&quot;font-size: 20px;&quot;&gt;Search&lt;/span&gt;&lt;span style=&quot;font-size: 20px;&quot;&gt;&lt;br&gt;&lt;/span&gt;&lt;/div&gt;" style="ellipse;whiteSpace=wrap;html=1;aspect=fixed;align=center;" vertex="1" parent="1">
          <mxGeometry x="250" y="400" width="130" height="130" as="geometry" />
        </mxCell>
        <mxCell id="gQGMB7D8yOKAmYJ-TftS-8" value="&lt;span style=&quot;font-size: 20px;&quot;&gt;Task&lt;/span&gt;&lt;div&gt;&lt;span style=&quot;font-size: 20px;&quot;&gt;Action&lt;/span&gt;&lt;/div&gt;" style="ellipse;whiteSpace=wrap;html=1;aspect=fixed;align=center;" vertex="1" parent="1">
          <mxGeometry x="410" y="400" width="130" height="130" as="geometry" />
        </mxCell>
        <mxCell id="gQGMB7D8yOKAmYJ-TftS-9" value="&lt;span style=&quot;font-size: 20px;&quot;&gt;Task&lt;/span&gt;&lt;div&gt;&lt;span style=&quot;font-size: 20px;&quot;&gt;List&lt;/span&gt;&lt;/div&gt;" style="ellipse;whiteSpace=wrap;html=1;aspect=fixed;align=center;" vertex="1" parent="1">
          <mxGeometry x="580" y="400" width="130" height="130" as="geometry" />
        </mxCell>
        <mxCell id="gQGMB7D8yOKAmYJ-TftS-10" value="&lt;span style=&quot;font-size: 20px;&quot;&gt;No&lt;/span&gt;&lt;div&gt;&lt;span style=&quot;font-size: 20px;&quot;&gt;Task&lt;/span&gt;&lt;/div&gt;" style="ellipse;whiteSpace=wrap;html=1;aspect=fixed;align=center;fillColor=#d5e8d4;strokeColor=#82b366;" vertex="1" parent="1">
          <mxGeometry x="740" y="400" width="130" height="130" as="geometry" />
        </mxCell>
        <mxCell id="gQGMB7D8yOKAmYJ-TftS-13" style="edgeStyle=orthogonalEdgeStyle;rounded=0;orthogonalLoop=1;jettySize=auto;html=1;exitX=0.5;exitY=1;exitDx=0;exitDy=0;entryX=0.569;entryY=0;entryDx=0;entryDy=0;entryPerimeter=0;" edge="1" parent="1" source="gQGMB7D8yOKAmYJ-TftS-1" target="gQGMB7D8yOKAmYJ-TftS-5">
          <mxGeometry relative="1" as="geometry" />
        </mxCell>
        <mxCell id="gQGMB7D8yOKAmYJ-TftS-17" value="&lt;span style=&quot;font-size: 20px;&quot;&gt;Task&lt;/span&gt;&lt;div&gt;&lt;span style=&quot;font-size: 20px;&quot;&gt;Modal&lt;/span&gt;&lt;/div&gt;" style="ellipse;whiteSpace=wrap;html=1;aspect=fixed;align=center;fillColor=#d5e8d4;strokeColor=#82b366;" vertex="1" parent="1">
          <mxGeometry x="891" y="400" width="130" height="130" as="geometry" />
        </mxCell>
        <mxCell id="gQGMB7D8yOKAmYJ-TftS-22" style="edgeStyle=orthogonalEdgeStyle;rounded=0;orthogonalLoop=1;jettySize=auto;html=1;exitX=0.5;exitY=1;exitDx=0;exitDy=0;entryX=0.6;entryY=0.015;entryDx=0;entryDy=0;entryPerimeter=0;" edge="1" parent="1" source="gQGMB7D8yOKAmYJ-TftS-4" target="gQGMB7D8yOKAmYJ-TftS-9">
          <mxGeometry relative="1" as="geometry" />
        </mxCell>
        <mxCell id="gQGMB7D8yOKAmYJ-TftS-23" value="&lt;span style=&quot;font-size: 20px;&quot;&gt;Conditional&lt;/span&gt;&lt;div&gt;&lt;span style=&quot;font-size: 20px;&quot;&gt;Color&lt;/span&gt;&lt;/div&gt;" style="ellipse;whiteSpace=wrap;html=1;aspect=fixed;align=center;fillColor=#d5e8d4;strokeColor=#82b366;" vertex="1" parent="1">
          <mxGeometry x="940" y="80" width="110" height="110" as="geometry" />
        </mxCell>
      </root>
    </mxGraphModel>
  </diagram>
</mxfile>
